# xmcd
#
# Track frame offsets: 
#        150
#        16520
#        35625
#        52905
#        66850
#        82580
#        100100
#        116694
#        133520
#        151777
#        167726
#        184622
#        201865
#
# Disc length: 2925 seconds
#
# Revision: 0
# Processed by: cddbd v1.5.2PL0 Copyright (c) Steve Scherf et al.
# Submitted via: ExactAudioCopy v0.95a5
#
DISCID=950b6b0d
DTITLE=Shy'm - Titre inconnu
DYEAR=1900
DGENRE=
TTITLE0=Femme de couleur
TTITLE1=Le blues de toi
TTITLE2=Mes fantaisies
TTITLE3=Oublies moi
TTITLE4=Pour vous
TTITLE5=Rêves d'enfant
TTITLE6=Shy'm
TTITLE7=Sur les dancefloors
TTITLE8=Ta lady
TTITLE9=T'es parti
TTITLE10=Tu comprendras
TTITLE11=Victoire
TTITLE12=Femme de Couleur 
EXTD=
EXTT0=
EXTT1=
EXTT2=
EXTT3=
EXTT4=
EXTT5=
EXTT6=
EXTT7=
EXTT8=
EXTT9=
EXTT10=
EXTT11=
EXTT12=
PLAYORDER=
